<svg width="420" height="96" viewBox="0 0 420 96" fill="none" xmlns="http://www.w3.org/2000/svg">
<path d="M46.1125 28.2625C42.1038 26.8824 37.7458 26.9015 33.7494 28.3169C29.753 29.7322 26.3543 32.4601 24.1077 36.0555C21.8611 39.651 20.8994 43.9016 21.3793 48.114C21.8593 52.3263 23.7527 56.2516 26.7505 59.2495C29.7484 62.2473 33.6737 64.1407 37.886 64.6207C42.0984 65.1006 46.349 64.1389 49.9445 61.8923C53.5399 59.6457 56.2678 56.247 57.6831 52.2506C59.0985 48.2542 59.1176 43.8962 57.7375 39.8875" stroke="#D7FF3E" stroke-width="5.69" stroke-linecap="round"/>
<path d="M57.4989 31.6831L54.3169 28.5011C53.7311 27.9153 52.7814 27.9153 52.1956 28.5011L49.0136 31.6831C48.4278 32.2689 48.4278 33.2186 49.0136 33.8044L52.1956 36.9864C52.7814 37.5722 53.7311 37.5722 54.3169 36.9864L57.4989 33.8044C58.0847 33.2186 58.0847 32.2689 57.4989 31.6831Z" fill="#D7FF3E"/>
<path d="M331.906 64H317.984V24.7273H332.021C335.971 24.7273 339.371 25.5135 342.222 27.0859C345.073 28.6456 347.266 30.8892 348.8 33.8168C350.347 36.7443 351.12 40.2472 351.12 44.3253C351.12 48.4162 350.347 51.9318 348.8 54.8722C347.266 57.8125 345.06 60.0689 342.184 61.6413C339.32 63.2138 335.894 64 331.906 64ZM326.287 56.8856H331.56C334.015 56.8856 336.08 56.451 337.754 55.5817C339.442 54.6996 340.707 53.3381 341.551 51.4972C342.408 49.6435 342.836 47.2528 342.836 44.3253C342.836 41.4233 342.408 39.0518 341.551 37.2109C340.707 35.37 339.448 34.0149 337.773 33.1456C336.099 32.2763 334.034 31.8416 331.58 31.8416H326.287V56.8856Z" fill="#0B0B0C"/>
<path d="M287.345 64V24.7273H295.648V57.1541H312.485V64H287.345Z" fill="#0B0B0C"/>
<path d="M280.513 24.7273V64H272.21V24.7273H280.513Z" fill="#0B0B0C"/>
<path d="M257.075 24.7273H265.379V50.2315C265.379 53.0952 264.695 55.6008 263.327 57.7486C261.972 59.8963 260.073 61.571 257.632 62.7727C255.19 63.9616 252.345 64.5561 249.098 64.5561C245.838 64.5561 242.987 63.9616 240.546 62.7727C238.104 61.571 236.205 59.8963 234.85 57.7486C233.495 55.6008 232.818 53.0952 232.818 50.2315V24.7273H241.121V49.522C241.121 51.0177 241.447 52.3473 242.099 53.5106C242.764 54.674 243.697 55.5881 244.899 56.2528C246.1 56.9176 247.5 57.25 249.098 57.25C250.709 57.25 252.109 56.9176 253.298 56.2528C254.499 55.5881 255.426 54.674 256.078 53.5106C256.743 52.3473 257.075 51.0177 257.075 49.522V24.7273Z" fill="#0B0B0C"/>
<path d="M197.116 64V24.7273H212.841C215.73 24.7273 218.14 25.1555 220.07 26.0121C222.001 26.8686 223.452 28.0575 224.423 29.5788C225.395 31.0874 225.881 32.826 225.881 34.7947C225.881 36.3288 225.574 37.6775 224.96 38.8409C224.347 39.9915 223.503 40.9375 222.429 41.679C221.368 42.4077 220.153 42.9254 218.786 43.2322V43.6158C220.281 43.6797 221.681 44.1016 222.985 44.8814C224.302 45.6612 225.369 46.7543 226.188 48.1605C227.006 49.554 227.415 51.2159 227.415 53.1463C227.415 55.2301 226.897 57.0902 225.862 58.7266C224.839 60.3501 223.324 61.6349 221.317 62.581C219.31 63.527 216.836 64 213.896 64H197.116ZM205.42 57.2116H212.189C214.503 57.2116 216.19 56.7706 217.251 55.8885C218.313 54.9936 218.843 53.8047 218.843 52.3217C218.843 51.2351 218.581 50.2763 218.057 49.4453C217.533 48.6143 216.785 47.9623 215.813 47.4893C214.854 47.0163 213.71 46.7798 212.381 46.7798H205.42V57.2116ZM205.42 41.1612H211.575C212.713 41.1612 213.723 40.9631 214.605 40.5668C215.5 40.1577 216.203 39.5824 216.715 38.8409C217.239 38.0994 217.501 37.2109 217.501 36.1754C217.501 34.7564 216.996 33.6122 215.986 32.7429C214.989 31.8736 213.57 31.4389 211.729 31.4389H205.42V41.1612Z" fill="#0B0B0C"/>
<path d="M159.55 31.5731V24.7273H191.805V31.5731H179.781V64H171.574V31.5731H159.55Z" fill="#0B0B0C"/>
<path d="M145.911 24.7273H154.215V50.2315C154.215 53.0952 153.531 55.6008 152.163 57.7486C150.808 59.8963 148.909 61.571 146.468 62.7727C144.026 63.9616 141.181 64.5561 137.934 64.5561C134.674 64.5561 131.823 63.9616 129.382 62.7727C126.94 61.571 125.041 59.8963 123.686 57.7486C122.331 55.6008 121.654 53.0952 121.654 50.2315V24.7273H129.957V49.522C129.957 51.0177 130.283 52.3473 130.935 53.5106C131.6 54.674 132.533 55.5881 133.735 56.2528C134.936 56.9176 136.336 57.25 137.934 57.25C139.545 57.25 140.945 56.9176 142.134 56.2528C143.335 55.5881 144.262 54.674 144.914 53.5106C145.579 52.3473 145.911 51.0177 145.911 49.522V24.7273Z" fill="#0B0B0C"/>
<path d="M115.503 44.3636C115.503 48.6463 114.691 52.2898 113.067 55.294C111.457 58.2983 109.258 60.593 106.471 62.1783C103.697 63.7507 100.577 64.5369 97.1129 64.5369C93.6229 64.5369 90.4908 63.7443 87.7166 62.1591C84.9425 60.5739 82.75 58.2791 81.1392 55.2749C79.5284 52.2706 78.723 48.6335 78.723 44.3636C78.723 40.081 79.5284 36.4375 81.1392 33.4332C82.75 30.429 84.9425 28.1406 87.7166 26.5682C90.4908 24.983 93.6229 24.1903 97.1129 24.1903C100.577 24.1903 103.697 24.983 106.471 26.5682C109.258 28.1406 111.457 30.429 113.067 33.4332C114.691 36.4375 115.503 40.081 115.503 44.3636ZM107.085 44.3636C107.085 41.5895 106.669 39.25 105.838 37.3452C105.02 35.4403 103.863 33.9957 102.367 33.0114C100.871 32.027 99.12 31.5348 97.1129 31.5348C95.1058 31.5348 93.3544 32.027 91.8587 33.0114C90.3629 33.9957 89.1996 35.4403 88.3686 37.3452C87.5504 39.25 87.1413 41.5895 87.1413 44.3636C87.1413 47.1378 87.5504 49.4773 88.3686 51.3821C89.1996 53.2869 90.3629 54.7315 91.8587 55.7159C93.3544 56.7003 95.1058 57.1925 97.1129 57.1925C99.12 57.1925 100.871 56.7003 102.367 55.7159C103.863 54.7315 105.02 53.2869 105.838 51.3821C106.669 49.4773 107.085 47.1378 107.085 44.3636Z" fill="#0B0B0C"/>
</svg>
