<svg width="1200" height="630" viewBox="0 0 1200 630" xmlns="http://www.w3.org/2000/svg">
  <defs>
    <radialGradient id="glow" cx="78%" cy="34%" r="55%">
      <stop offset="0%" stop-color="#d7ff3e" stop-opacity="0.20"/>
      <stop offset="55%" stop-color="#d7ff3e" stop-opacity="0.04"/>
      <stop offset="100%" stop-color="#d7ff3e" stop-opacity="0"/>
    </radialGradient>
    <filter id="grain"><feTurbulence type="fractalNoise" baseFrequency="0.9" numOctaves="2" stitchTiles="stitch"/><feColorMatrix type="saturate" values="0"/></filter>
  </defs>

  <rect width="1200" height="630" fill="#0b0b0c"/>
  <rect width="1200" height="630" fill="url(#glow)"/>
  <rect width="1200" height="630" filter="url(#grain)" opacity="0.05"/>

  <!-- particle "O" -->
  <g transform="translate(935,300) rotate(-15) scale(1,0.8)">
    <circle r="205" fill="none" stroke="#d7ff3e" stroke-width="1" opacity="0.14"/>
    <circle r="108" fill="none" stroke="#d7ff3e" stroke-width="1" opacity="0.14"/>
    <circle cx="205.0" cy="0.0" r="3.4" fill="#d7ff3e" opacity="1"/><circle cx="204.2" cy="18.4" r="2.6" fill="#5a5a54" opacity="0.72"/><circle cx="201.7" cy="36.6" r="2.6" fill="#5a5a54" opacity="0.72"/><circle cx="197.6" cy="54.5" r="2.6" fill="#5a5a54" opacity="0.72"/><circle cx="191.9" cy="72.0" r="2.6" fill="#5a5a54" opacity="0.72"/><circle cx="184.7" cy="88.9" r="2.6" fill="#5a5a54" opacity="0.72"/><circle cx="176.0" cy="105.1" r="3.4" fill="#d7ff3e" opacity="1"/><circle cx="165.8" cy="120.5" r="2.6" fill="#5a5a54" opacity="0.72"/><circle cx="154.4" cy="134.9" r="2.6" fill="#5a5a54" opacity="0.72"/><circle cx="141.7" cy="148.2" r="2.6" fill="#5a5a54" opacity="0.72"/><circle cx="127.8" cy="160.3" r="2.6" fill="#5a5a54" opacity="0.72"/><circle cx="112.9" cy="171.1" r="2.6" fill="#5a5a54" opacity="0.72"/><circle cx="97.1" cy="180.5" r="3.4" fill="#d7ff3e" opacity="1"/><circle cx="80.6" cy="188.5" r="2.6" fill="#5a5a54" opacity="0.72"/><circle cx="63.3" cy="195.0" r="2.6" fill="#5a5a54" opacity="0.72"/><circle cx="45.6" cy="199.9" r="2.6" fill="#5a5a54" opacity="0.72"/><circle cx="27.5" cy="203.1" r="2.6" fill="#5a5a54" opacity="0.72"/><circle cx="9.2" cy="204.8" r="2.6" fill="#5a5a54" opacity="0.72"/><circle cx="-9.2" cy="204.8" r="3.4" fill="#d7ff3e" opacity="1"/><circle cx="-27.5" cy="203.1" r="2.6" fill="#5a5a54" opacity="0.72"/><circle cx="-45.6" cy="199.9" r="2.6" fill="#5a5a54" opacity="0.72"/><circle cx="-63.3" cy="195.0" r="2.6" fill="#5a5a54" opacity="0.72"/><circle cx="-80.6" cy="188.5" r="2.6" fill="#5a5a54" opacity="0.72"/><circle cx="-97.1" cy="180.5" r="2.6" fill="#5a5a54" opacity="0.72"/><circle cx="-112.9" cy="171.1" r="3.4" fill="#d7ff3e" opacity="1"/><circle cx="-127.8" cy="160.3" r="2.6" fill="#5a5a54" opacity="0.72"/><circle cx="-141.7" cy="148.2" r="2.6" fill="#5a5a54" opacity="0.72"/><circle cx="-154.4" cy="134.9" r="2.6" fill="#5a5a54" opacity="0.72"/><circle cx="-165.8" cy="120.5" r="2.6" fill="#5a5a54" opacity="0.72"/><circle cx="-176.0" cy="105.1" r="2.6" fill="#5a5a54" opacity="0.72"/><circle cx="-184.7" cy="88.9" r="3.4" fill="#d7ff3e" opacity="1"/><circle cx="-191.9" cy="72.0" r="2.6" fill="#5a5a54" opacity="0.72"/><circle cx="-197.6" cy="54.5" r="2.6" fill="#5a5a54" opacity="0.72"/><circle cx="-201.7" cy="36.6" r="2.6" fill="#5a5a54" opacity="0.72"/><circle cx="-204.2" cy="18.4" r="2.6" fill="#5a5a54" opacity="0.72"/><circle cx="-205.0" cy="0.0" r="2.6" fill="#5a5a54" opacity="0.72"/><circle cx="-204.2" cy="-18.4" r="3.4" fill="#d7ff3e" opacity="1"/><circle cx="-201.7" cy="-36.6" r="2.6" fill="#5a5a54" opacity="0.72"/><circle cx="-197.6" cy="-54.5" r="2.6" fill="#5a5a54" opacity="0.72"/><circle cx="-191.9" cy="-72.0" r="2.6" fill="#5a5a54" opacity="0.72"/><circle cx="-184.7" cy="-88.9" r="2.6" fill="#5a5a54" opacity="0.72"/><circle cx="-176.0" cy="-105.1" r="2.6" fill="#5a5a54" opacity="0.72"/><circle cx="-165.8" cy="-120.5" r="3.4" fill="#d7ff3e" opacity="1"/><circle cx="-154.4" cy="-134.9" r="2.6" fill="#5a5a54" opacity="0.72"/><circle cx="-141.7" cy="-148.2" r="2.6" fill="#5a5a54" opacity="0.72"/><circle cx="-127.8" cy="-160.3" r="2.6" fill="#5a5a54" opacity="0.72"/><circle cx="-112.9" cy="-171.1" r="2.6" fill="#5a5a54" opacity="0.72"/><circle cx="-97.1" cy="-180.5" r="2.6" fill="#5a5a54" opacity="0.72"/><circle cx="-80.6" cy="-188.5" r="3.4" fill="#d7ff3e" opacity="1"/><circle cx="-63.3" cy="-195.0" r="2.6" fill="#5a5a54" opacity="0.72"/><circle cx="-45.6" cy="-199.9" r="2.6" fill="#5a5a54" opacity="0.72"/><circle cx="-27.5" cy="-203.1" r="2.6" fill="#5a5a54" opacity="0.72"/><circle cx="-9.2" cy="-204.8" r="2.6" fill="#5a5a54" opacity="0.72"/><circle cx="9.2" cy="-204.8" r="2.6" fill="#5a5a54" opacity="0.72"/><circle cx="27.5" cy="-203.1" r="3.4" fill="#d7ff3e" opacity="1"/><circle cx="45.6" cy="-199.9" r="2.6" fill="#5a5a54" opacity="0.72"/><circle cx="63.3" cy="-195.0" r="2.6" fill="#5a5a54" opacity="0.72"/><circle cx="80.6" cy="-188.5" r="2.6" fill="#5a5a54" opacity="0.72"/><circle cx="97.1" cy="-180.5" r="2.6" fill="#5a5a54" opacity="0.72"/><circle cx="112.9" cy="-171.1" r="2.6" fill="#5a5a54" opacity="0.72"/><circle cx="127.8" cy="-160.3" r="3.4" fill="#d7ff3e" opacity="1"/><circle cx="141.7" cy="-148.2" r="2.6" fill="#5a5a54" opacity="0.72"/><circle cx="154.4" cy="-134.9" r="2.6" fill="#5a5a54" opacity="0.72"/><circle cx="165.8" cy="-120.5" r="2.6" fill="#5a5a54" opacity="0.72"/><circle cx="176.0" cy="-105.1" r="2.6" fill="#5a5a54" opacity="0.72"/><circle cx="184.7" cy="-88.9" r="2.6" fill="#5a5a54" opacity="0.72"/><circle cx="191.9" cy="-72.0" r="3.4" fill="#d7ff3e" opacity="1"/><circle cx="197.6" cy="-54.5" r="2.6" fill="#5a5a54" opacity="0.72"/><circle cx="201.7" cy="-36.6" r="2.6" fill="#5a5a54" opacity="0.72"/><circle cx="204.2" cy="-18.4" r="2.6" fill="#5a5a54" opacity="0.72"/><circle cx="150.0" cy="0.0" r="3.4" fill="#d7ff3e" opacity="1"/><circle cx="149.0" cy="17.4" r="2.6" fill="#5a5a54" opacity="0.72"/><circle cx="146.0" cy="34.6" r="2.6" fill="#5a5a54" opacity="0.72"/><circle cx="141.0" cy="51.3" r="2.6" fill="#5a5a54" opacity="0.72"/><circle cx="134.0" cy="67.3" r="2.6" fill="#5a5a54" opacity="0.72"/><circle cx="125.3" cy="82.4" r="2.6" fill="#5a5a54" opacity="0.72"/><circle cx="114.9" cy="96.4" r="3.4" fill="#d7ff3e" opacity="1"/><circle cx="102.9" cy="109.1" r="2.6" fill="#5a5a54" opacity="0.72"/><circle cx="89.6" cy="120.3" r="2.6" fill="#5a5a54" opacity="0.72"/><circle cx="75.0" cy="129.9" r="2.6" fill="#5a5a54" opacity="0.72"/><circle cx="59.4" cy="137.7" r="2.6" fill="#5a5a54" opacity="0.72"/><circle cx="43.0" cy="143.7" r="2.6" fill="#5a5a54" opacity="0.72"/><circle cx="26.0" cy="147.7" r="3.4" fill="#d7ff3e" opacity="1"/><circle cx="8.7" cy="149.7" r="2.6" fill="#5a5a54" opacity="0.72"/><circle cx="-8.7" cy="149.7" r="2.6" fill="#5a5a54" opacity="0.72"/><circle cx="-26.0" cy="147.7" r="2.6" fill="#5a5a54" opacity="0.72"/><circle cx="-43.0" cy="143.7" r="2.6" fill="#5a5a54" opacity="0.72"/><circle cx="-59.4" cy="137.7" r="2.6" fill="#5a5a54" opacity="0.72"/><circle cx="-75.0" cy="129.9" r="3.4" fill="#d7ff3e" opacity="1"/><circle cx="-89.6" cy="120.3" r="2.6" fill="#5a5a54" opacity="0.72"/><circle cx="-102.9" cy="109.1" r="2.6" fill="#5a5a54" opacity="0.72"/><circle cx="-114.9" cy="96.4" r="2.6" fill="#5a5a54" opacity="0.72"/><circle cx="-125.3" cy="82.4" r="2.6" fill="#5a5a54" opacity="0.72"/><circle cx="-134.0" cy="67.3" r="2.6" fill="#5a5a54" opacity="0.72"/><circle cx="-141.0" cy="51.3" r="3.4" fill="#d7ff3e" opacity="1"/><circle cx="-146.0" cy="34.6" r="2.6" fill="#5a5a54" opacity="0.72"/><circle cx="-149.0" cy="17.4" r="2.6" fill="#5a5a54" opacity="0.72"/><circle cx="-150.0" cy="0.0" r="2.6" fill="#5a5a54" opacity="0.72"/><circle cx="-149.0" cy="-17.4" r="2.6" fill="#5a5a54" opacity="0.72"/><circle cx="-146.0" cy="-34.6" r="2.6" fill="#5a5a54" opacity="0.72"/><circle cx="-141.0" cy="-51.3" r="3.4" fill="#d7ff3e" opacity="1"/><circle cx="-134.0" cy="-67.3" r="2.6" fill="#5a5a54" opacity="0.72"/><circle cx="-125.3" cy="-82.4" r="2.6" fill="#5a5a54" opacity="0.72"/><circle cx="-114.9" cy="-96.4" r="2.6" fill="#5a5a54" opacity="0.72"/><circle cx="-102.9" cy="-109.1" r="2.6" fill="#5a5a54" opacity="0.72"/><circle cx="-89.6" cy="-120.3" r="2.6" fill="#5a5a54" opacity="0.72"/><circle cx="-75.0" cy="-129.9" r="3.4" fill="#d7ff3e" opacity="1"/><circle cx="-59.4" cy="-137.7" r="2.6" fill="#5a5a54" opacity="0.72"/><circle cx="-43.0" cy="-143.7" r="2.6" fill="#5a5a54" opacity="0.72"/><circle cx="-26.0" cy="-147.7" r="2.6" fill="#5a5a54" opacity="0.72"/><circle cx="-8.7" cy="-149.7" r="2.6" fill="#5a5a54" opacity="0.72"/><circle cx="8.7" cy="-149.7" r="2.6" fill="#5a5a54" opacity="0.72"/><circle cx="26.0" cy="-147.7" r="3.4" fill="#d7ff3e" opacity="1"/><circle cx="43.0" cy="-143.7" r="2.6" fill="#5a5a54" opacity="0.72"/><circle cx="59.4" cy="-137.7" r="2.6" fill="#5a5a54" opacity="0.72"/><circle cx="75.0" cy="-129.9" r="2.6" fill="#5a5a54" opacity="0.72"/><circle cx="89.6" cy="-120.3" r="2.6" fill="#5a5a54" opacity="0.72"/><circle cx="102.9" cy="-109.1" r="2.6" fill="#5a5a54" opacity="0.72"/><circle cx="114.9" cy="-96.4" r="3.4" fill="#d7ff3e" opacity="1"/><circle cx="125.3" cy="-82.4" r="2.6" fill="#5a5a54" opacity="0.72"/><circle cx="134.0" cy="-67.3" r="2.6" fill="#5a5a54" opacity="0.72"/><circle cx="141.0" cy="-51.3" r="2.6" fill="#5a5a54" opacity="0.72"/><circle cx="146.0" cy="-34.6" r="2.6" fill="#5a5a54" opacity="0.72"/><circle cx="149.0" cy="-17.4" r="2.6" fill="#5a5a54" opacity="0.72"/><circle cx="108.0" cy="0.0" r="3.4" fill="#d7ff3e" opacity="1"/><circle cx="106.7" cy="16.9" r="2.6" fill="#5a5a54" opacity="0.72"/><circle cx="102.7" cy="33.4" r="2.6" fill="#5a5a54" opacity="0.72"/><circle cx="96.2" cy="49.0" r="2.6" fill="#5a5a54" opacity="0.72"/><circle cx="87.4" cy="63.5" r="2.6" fill="#5a5a54" opacity="0.72"/><circle cx="76.4" cy="76.4" r="2.6" fill="#5a5a54" opacity="0.72"/><circle cx="63.5" cy="87.4" r="2.6" fill="#5a5a54" opacity="0.72"/><circle cx="49.0" cy="96.2" r="3.4" fill="#d7ff3e" opacity="1"/><circle cx="33.4" cy="102.7" r="2.6" fill="#5a5a54" opacity="0.72"/><circle cx="16.9" cy="106.7" r="2.6" fill="#5a5a54" opacity="0.72"/><circle cx="0.0" cy="108.0" r="2.6" fill="#5a5a54" opacity="0.72"/><circle cx="-16.9" cy="106.7" r="2.6" fill="#5a5a54" opacity="0.72"/><circle cx="-33.4" cy="102.7" r="2.6" fill="#5a5a54" opacity="0.72"/><circle cx="-49.0" cy="96.2" r="2.6" fill="#5a5a54" opacity="0.72"/><circle cx="-63.5" cy="87.4" r="3.4" fill="#d7ff3e" opacity="1"/><circle cx="-76.4" cy="76.4" r="2.6" fill="#5a5a54" opacity="0.72"/><circle cx="-87.4" cy="63.5" r="2.6" fill="#5a5a54" opacity="0.72"/><circle cx="-96.2" cy="49.0" r="2.6" fill="#5a5a54" opacity="0.72"/><circle cx="-102.7" cy="33.4" r="2.6" fill="#5a5a54" opacity="0.72"/><circle cx="-106.7" cy="16.9" r="2.6" fill="#5a5a54" opacity="0.72"/><circle cx="-108.0" cy="0.0" r="2.6" fill="#5a5a54" opacity="0.72"/><circle cx="-106.7" cy="-16.9" r="3.4" fill="#d7ff3e" opacity="1"/><circle cx="-102.7" cy="-33.4" r="2.6" fill="#5a5a54" opacity="0.72"/><circle cx="-96.2" cy="-49.0" r="2.6" fill="#5a5a54" opacity="0.72"/><circle cx="-87.4" cy="-63.5" r="2.6" fill="#5a5a54" opacity="0.72"/><circle cx="-76.4" cy="-76.4" r="2.6" fill="#5a5a54" opacity="0.72"/><circle cx="-63.5" cy="-87.4" r="2.6" fill="#5a5a54" opacity="0.72"/><circle cx="-49.0" cy="-96.2" r="2.6" fill="#5a5a54" opacity="0.72"/><circle cx="-33.4" cy="-102.7" r="3.4" fill="#d7ff3e" opacity="1"/><circle cx="-16.9" cy="-106.7" r="2.6" fill="#5a5a54" opacity="0.72"/><circle cx="-0.0" cy="-108.0" r="2.6" fill="#5a5a54" opacity="0.72"/><circle cx="16.9" cy="-106.7" r="2.6" fill="#5a5a54" opacity="0.72"/><circle cx="33.4" cy="-102.7" r="2.6" fill="#5a5a54" opacity="0.72"/><circle cx="49.0" cy="-96.2" r="2.6" fill="#5a5a54" opacity="0.72"/><circle cx="63.5" cy="-87.4" r="2.6" fill="#5a5a54" opacity="0.72"/><circle cx="76.4" cy="-76.4" r="3.4" fill="#d7ff3e" opacity="1"/><circle cx="87.4" cy="-63.5" r="2.6" fill="#5a5a54" opacity="0.72"/><circle cx="96.2" cy="-49.0" r="2.6" fill="#5a5a54" opacity="0.72"/><circle cx="102.7" cy="-33.4" r="2.6" fill="#5a5a54" opacity="0.72"/><circle cx="106.7" cy="-16.9" r="2.6" fill="#5a5a54" opacity="0.72"/>
  </g>

  <!-- eyebrow -->
  <g font-family="Menlo, 'Courier New', monospace" font-size="22" letter-spacing="4">
    <circle cx="86" cy="142" r="6" fill="#d7ff3e"/>
    <text x="104" y="150" fill="#9a9a93">AI-NATIVE PRODUCT STUDIO</text>
  </g>

  <!-- wordmark -->
  <g font-family="'Helvetica Neue', Helvetica, Arial, sans-serif" font-weight="800">
    <text x="74" y="318" font-size="132" letter-spacing="-5" fill="#edede8">OUTBUILD</text>
    <text x="80" y="446" font-size="104" letter-spacing="-3" font-weight="700">
      <tspan fill="none" stroke="#edede8" stroke-width="2">THE</tspan><tspan fill="#edede8"> TIMELINE</tspan><tspan fill="#d7ff3e" font-size="40" dy="-44">®</tspan>
    </text>
  </g>

  <!-- footer url -->
  <text x="80" y="560" font-family="Menlo, 'Courier New', monospace" font-size="24" letter-spacing="2" fill="#d7ff3e">outbuildlab.com</text>
</svg>